<svg aria-roledescription="er" role="graphics-document document" viewBox="0 0 731.7421875 408" style="max-width: 731.7421875px;" xmlns="http://www.w3.org/2000/svg" width="100%" id="mermaidSvgChart"><style>#mermaidSvgChart{font-family:"trebuchet ms",verdana,arial,sans-serif;font-size:16px;fill:#000000;}#mermaidSvgChart .error-icon{fill:#552222;}#mermaidSvgChart .error-text{fill:#552222;stroke:#552222;}#mermaidSvgChart .edge-thickness-normal{stroke-width:2px;}#mermaidSvgChart .edge-thickness-thick{stroke-width:3.5px;}#mermaidSvgChart .edge-pattern-solid{stroke-dasharray:0;}#mermaidSvgChart .edge-pattern-dashed{stroke-dasharray:3;}#mermaidSvgChart .edge-pattern-dotted{stroke-dasharray:2;}#mermaidSvgChart .marker{fill:#666;stroke:#666;}#mermaidSvgChart .marker.cross{stroke:#666;}#mermaidSvgChart svg{font-family:"trebuchet ms",verdana,arial,sans-serif;font-size:16px;}#mermaidSvgChart .entityBox{fill:#eee;stroke:#999;}#mermaidSvgChart .attributeBoxOdd{fill:#ffffff;stroke:#999;}#mermaidSvgChart .attributeBoxEven{fill:#f2f2f2;stroke:#999;}#mermaidSvgChart .relationshipLabelBox{fill:hsl(-160, 0%, 93.3333333333%);opacity:0.7;background-color:hsl(-160, 0%, 93.3333333333%);}#mermaidSvgChart .relationshipLabelBox rect{opacity:0.5;}#mermaidSvgChart .relationshipLine{stroke:#666;}#mermaidSvgChart .entityTitleText{text-anchor:middle;font-size:18px;fill:#000000;}#mermaidSvgChart :root{--mermaid-font-family:"trebuchet ms",verdana,arial,sans-serif;}</style><g></g><defs><marker orient="auto" markerHeight="18" markerWidth="18" refY="9" refX="0" id="ONLY_ONE_START"><path d="M9,0 L9,18 M15,0 L15,18" fill="none" stroke="gray"></path></marker></defs><defs><marker orient="auto" markerHeight="18" markerWidth="18" refY="9" refX="18" id="ONLY_ONE_END"><path d="M3,0 L3,18 M9,0 L9,18" fill="none" stroke="gray"></path></marker></defs><defs><marker orient="auto" markerHeight="18" markerWidth="30" refY="9" refX="0" id="ZERO_OR_ONE_START"><circle r="6" cy="9" cx="21" fill="white" stroke="gray"></circle><path d="M9,0 L9,18" fill="none" stroke="gray"></path></marker></defs><defs><marker orient="auto" markerHeight="18" markerWidth="30" refY="9" refX="30" id="ZERO_OR_ONE_END"><circle r="6" cy="9" cx="9" fill="white" stroke="gray"></circle><path d="M21,0 L21,18" fill="none" stroke="gray"></path></marker></defs><defs><marker orient="auto" markerHeight="36" markerWidth="45" refY="18" refX="18" id="ONE_OR_MORE_START"><path d="M0,18 Q 18,0 36,18 Q 18,36 0,18 M42,9 L42,27" fill="none" stroke="gray"></path></marker></defs><defs><marker orient="auto" markerHeight="36" markerWidth="45" refY="18" refX="27" id="ONE_OR_MORE_END"><path d="M3,9 L3,27 M9,18 Q27,0 45,18 Q27,36 9,18" fill="none" stroke="gray"></path></marker></defs><defs><marker orient="auto" markerHeight="36" markerWidth="57" refY="18" refX="18" id="ZERO_OR_MORE_START"><circle r="6" cy="18" cx="48" fill="white" stroke="gray"></circle><path d="M0,18 Q18,0 36,18 Q18,36 0,18" fill="none" stroke="gray"></path></marker></defs><defs><marker orient="auto" markerHeight="36" markerWidth="57" refY="18" refX="39" id="ZERO_OR_MORE_END"><circle r="6" cy="18" cx="9" fill="white" stroke="gray"></circle><path d="M21,18 Q39,0 57,18 Q39,36 21,18" fill="none" stroke="gray"></path></marker></defs><path style="stroke: gray; fill: none;" marker-start="url(#ONLY_ONE_START)" marker-end="url(#ONE_OR_MORE_END)" d="M142.939,110L137.278,122C131.618,134,120.297,158,114.637,183.833C108.977,209.667,108.977,237.333,108.977,251.167L108.977,265" class="er relationshipLine"></path><path style="stroke: gray; fill: none;" marker-start="url(#ONLY_ONE_START)" marker-end="url(#ONE_OR_MORE_END)" d="M201.722,110L216.809,122C231.895,134,262.069,158,284.962,182C307.854,206,323.467,230,331.273,242L339.079,254" class="er relationshipLine"></path><path style="stroke: gray; fill: none;" marker-start="url(#ONLY_ONE_START)" marker-end="url(#ONE_OR_MORE_END)" d="M608.817,132L612.748,140.333C616.679,148.667,624.541,165.333,628.472,182C632.402,198.667,632.402,215.333,632.402,223.667L632.402,232" class="er relationshipLine"></path><path style="stroke: gray; fill: none;" marker-start="url(#ONLY_ONE_START)" marker-end="url(#ONE_OR_MORE_END)" d="M514.543,132L504.445,140.333C494.347,148.667,474.151,165.333,456.699,185.667C439.246,206,424.537,230,417.183,242L409.828,254" class="er relationshipLine"></path><g transform="translate(297.953125,254 )" id="entity-dboLIBRO-454b0f51-bfb6-5d46-8597-c59d506c9c15"><rect height="112" width="155.109375" y="0" x="0" class="er entityBox"></rect><text style="dominant-baseline: middle; text-anchor: middle; font-size: 12px;" transform="translate(77.5546875,12)" y="0" x="0" id="text-entity-dboLIBRO-454b0f51-bfb6-5d46-8597-c59d506c9c15" class="er entityLabel">dbo.LIBRO</text><rect height="22" width="67.828125" y="24" x="0" class="er attributeBoxOdd"></rect><text style="dominant-baseline: middle; font-size: 10.2px;" transform="translate(5,35)" y="0" x="0" id="text-entity-dboLIBRO-454b0f51-bfb6-5d46-8597-c59d506c9c15-attr-1-type" class="er entityLabel">int</text><rect height="22" width="63.671875" y="24" x="67.828125" class="er attributeBoxOdd"></rect><text style="dominant-baseline: middle; font-size: 10.2px;" transform="translate(72.828125,35)" y="0" x="0" id="text-entity-dboLIBRO-454b0f51-bfb6-5d46-8597-c59d506c9c15-attr-1-name" class="er entityLabel">IDLIBRO</text><rect height="22" width="23.609375" y="24" x="131.5" class="er attributeBoxOdd"></rect><text style="dominant-baseline: middle; font-size: 10.2px;" transform="translate(136.5,35)" y="0" x="0" id="text-entity-dboLIBRO-454b0f51-bfb6-5d46-8597-c59d506c9c15-attr-1-comment" class="er entityLabel">PK</text><rect height="22" width="67.828125" y="46" x="0" class="er attributeBoxEven"></rect><text style="dominant-baseline: middle; font-size: 10.2px;" transform="translate(5,57)" y="0" x="0" id="text-entity-dboLIBRO-454b0f51-bfb6-5d46-8597-c59d506c9c15-attr-2-type" class="er entityLabel">varchar(255)</text><rect height="22" width="63.671875" y="46" x="67.828125" class="er attributeBoxEven"></rect><text style="dominant-baseline: middle; font-size: 10.2px;" transform="translate(72.828125,57)" y="0" x="0" id="text-entity-dboLIBRO-454b0f51-bfb6-5d46-8597-c59d506c9c15-attr-2-name" class="er entityLabel">TITULO</text><rect height="22" width="23.609375" y="46" x="131.5" class="er attributeBoxEven"></rect><text style="dominant-baseline: middle; font-size: 10.2px;" transform="translate(136.5,57)" y="0" x="0" id="text-entity-dboLIBRO-454b0f51-bfb6-5d46-8597-c59d506c9c15-attr-2-comment" class="er entityLabel"></text><rect height="22" width="67.828125" y="68" x="0" class="er attributeBoxOdd"></rect><text style="dominant-baseline: middle; font-size: 10.2px;" transform="translate(5,79)" y="0" x="0" id="text-entity-dboLIBRO-454b0f51-bfb6-5d46-8597-c59d506c9c15-attr-3-type" class="er entityLabel">varchar(255)</text><rect height="22" width="63.671875" y="68" x="67.828125" class="er attributeBoxOdd"></rect><text style="dominant-baseline: middle; font-size: 10.2px;" transform="translate(72.828125,79)" y="0" x="0" id="text-entity-dboLIBRO-454b0f51-bfb6-5d46-8597-c59d506c9c15-attr-3-name" class="er entityLabel">EDITORIAL</text><rect height="22" width="23.609375" y="68" x="131.5" class="er attributeBoxOdd"></rect><text style="dominant-baseline: middle; font-size: 10.2px;" transform="translate(136.5,79)" y="0" x="0" id="text-entity-dboLIBRO-454b0f51-bfb6-5d46-8597-c59d506c9c15-attr-3-comment" class="er entityLabel"></text><rect height="22" width="67.828125" y="90" x="0" class="er attributeBoxEven"></rect><text style="dominant-baseline: middle; font-size: 10.2px;" transform="translate(5,101)" y="0" x="0" id="text-entity-dboLIBRO-454b0f51-bfb6-5d46-8597-c59d506c9c15-attr-4-type" class="er entityLabel">varchar(255)</text><rect height="22" width="63.671875" y="90" x="67.828125" class="er attributeBoxEven"></rect><text style="dominant-baseline: middle; font-size: 10.2px;" transform="translate(72.828125,101)" y="0" x="0" id="text-entity-dboLIBRO-454b0f51-bfb6-5d46-8597-c59d506c9c15-attr-4-name" class="er entityLabel">AREA</text><rect height="22" width="23.609375" y="90" x="131.5" class="er attributeBoxEven"></rect><text style="dominant-baseline: middle; font-size: 10.2px;" transform="translate(136.5,101)" y="0" x="0" id="text-entity-dboLIBRO-454b0f51-bfb6-5d46-8597-c59d506c9c15-attr-4-comment" class="er entityLabel"></text></g><g transform="translate(20,265 )" id="entity-dboAUTOR-c57f65d7-f94d-5f25-9492-c930f586c042"><rect height="90" width="177.953125" y="0" x="0" class="er entityBox"></rect><text style="dominant-baseline: middle; text-anchor: middle; font-size: 12px;" transform="translate(88.9765625,12)" y="0" x="0" id="text-entity-dboAUTOR-c57f65d7-f94d-5f25-9492-c930f586c042" class="er entityLabel">dbo.AUTOR</text><rect height="22" width="67.828125" y="24" x="0" class="er attributeBoxOdd"></rect><text style="dominant-baseline: middle; font-size: 10.2px;" transform="translate(5,35)" y="0" x="0" id="text-entity-dboAUTOR-c57f65d7-f94d-5f25-9492-c930f586c042-attr-1-type" class="er entityLabel">int</text><rect height="22" width="86.515625" y="24" x="67.828125" class="er attributeBoxOdd"></rect><text style="dominant-baseline: middle; font-size: 10.2px;" transform="translate(72.828125,35)" y="0" x="0" id="text-entity-dboAUTOR-c57f65d7-f94d-5f25-9492-c930f586c042-attr-1-name" class="er entityLabel">IDAUTOR</text><rect height="22" width="23.609375" y="24" x="154.34375" class="er attributeBoxOdd"></rect><text style="dominant-baseline: middle; font-size: 10.2px;" transform="translate(159.34375,35)" y="0" x="0" id="text-entity-dboAUTOR-c57f65d7-f94d-5f25-9492-c930f586c042-attr-1-comment" class="er entityLabel">PK</text><rect height="22" width="67.828125" y="46" x="0" class="er attributeBoxEven"></rect><text style="dominant-baseline: middle; font-size: 10.2px;" transform="translate(5,57)" y="0" x="0" id="text-entity-dboAUTOR-c57f65d7-f94d-5f25-9492-c930f586c042-attr-2-type" class="er entityLabel">varchar(255)</text><rect height="22" width="86.515625" y="46" x="67.828125" class="er attributeBoxEven"></rect><text style="dominant-baseline: middle; font-size: 10.2px;" transform="translate(72.828125,57)" y="0" x="0" id="text-entity-dboAUTOR-c57f65d7-f94d-5f25-9492-c930f586c042-attr-2-name" class="er entityLabel">NOMBRE</text><rect height="22" width="23.609375" y="46" x="154.34375" class="er attributeBoxEven"></rect><text style="dominant-baseline: middle; font-size: 10.2px;" transform="translate(159.34375,57)" y="0" x="0" id="text-entity-dboAUTOR-c57f65d7-f94d-5f25-9492-c930f586c042-attr-2-comment" class="er entityLabel"></text><rect height="22" width="67.828125" y="68" x="0" class="er attributeBoxOdd"></rect><text style="dominant-baseline: middle; font-size: 10.2px;" transform="translate(5,79)" y="0" x="0" id="text-entity-dboAUTOR-c57f65d7-f94d-5f25-9492-c930f586c042-attr-3-type" class="er entityLabel">varchar(255)</text><rect height="22" width="86.515625" y="68" x="67.828125" class="er attributeBoxOdd"></rect><text style="dominant-baseline: middle; font-size: 10.2px;" transform="translate(72.828125,79)" y="0" x="0" id="text-entity-dboAUTOR-c57f65d7-f94d-5f25-9492-c930f586c042-attr-3-name" class="er entityLabel">NACIONALIDAD</text><rect height="22" width="23.609375" y="68" x="154.34375" class="er attributeBoxOdd"></rect><text style="dominant-baseline: middle; font-size: 10.2px;" transform="translate(159.34375,79)" y="0" x="0" id="text-entity-dboAUTOR-c57f65d7-f94d-5f25-9492-c930f586c042-attr-3-comment" class="er entityLabel"></text></g><g transform="translate(99.05859375,42 )" id="entity-dboLIBAUTOR-b1378112-84fb-5427-b4b3-5c4cd4c42e20"><rect height="68" width="119.8359375" y="0" x="0" class="er entityBox"></rect><text style="dominant-baseline: middle; text-anchor: middle; font-size: 12px;" transform="translate(59.91796875,12)" y="0" x="0" id="text-entity-dboLIBAUTOR-b1378112-84fb-5427-b4b3-5c4cd4c42e20" class="er entityLabel">dbo.LIB_AUTOR</text><rect height="22" width="27.5390625" y="24" x="0" class="er attributeBoxOdd"></rect><text style="dominant-baseline: middle; font-size: 10.2px;" transform="translate(5,35)" y="0" x="0" id="text-entity-dboLIBAUTOR-b1378112-84fb-5427-b4b3-5c4cd4c42e20-attr-1-type" class="er entityLabel">int</text><rect height="22" width="62.4921875" y="24" x="27.5390625" class="er attributeBoxOdd"></rect><text style="dominant-baseline: middle; font-size: 10.2px;" transform="translate(32.5390625,35)" y="0" x="0" id="text-entity-dboLIBAUTOR-b1378112-84fb-5427-b4b3-5c4cd4c42e20-attr-1-name" class="er entityLabel">IDAUTOR</text><rect height="22" width="29.8046875" y="24" x="90.03125" class="er attributeBoxOdd"></rect><text style="dominant-baseline: middle; font-size: 10.2px;" transform="translate(95.03125,35)" y="0" x="0" id="text-entity-dboLIBAUTOR-b1378112-84fb-5427-b4b3-5c4cd4c42e20-attr-1-comment" class="er entityLabel">FK</text><rect height="22" width="27.5390625" y="46" x="0" class="er attributeBoxEven"></rect><text style="dominant-baseline: middle; font-size: 10.2px;" transform="translate(5,57)" y="0" x="0" id="text-entity-dboLIBAUTOR-b1378112-84fb-5427-b4b3-5c4cd4c42e20-attr-2-type" class="er entityLabel">int</text><rect height="22" width="62.4921875" y="46" x="27.5390625" class="er attributeBoxEven"></rect><text style="dominant-baseline: middle; font-size: 10.2px;" transform="translate(32.5390625,57)" y="0" x="0" id="text-entity-dboLIBAUTOR-b1378112-84fb-5427-b4b3-5c4cd4c42e20-attr-2-name" class="er entityLabel">IDLIBRO</text><rect height="22" width="29.8046875" y="46" x="90.03125" class="er attributeBoxEven"></rect><text style="dominant-baseline: middle; font-size: 10.2px;" transform="translate(95.03125,57)" y="0" x="0" id="text-entity-dboLIBAUTOR-b1378112-84fb-5427-b4b3-5c4cd4c42e20-attr-2-comment" class="er entityLabel">FK</text></g><g transform="translate(553.0625,232 )" id="entity-dboESTUDIANTE-b57515c3-2980-57e2-a97a-1e8b05a4e00c"><rect height="156" width="158.6796875" y="0" x="0" class="er entityBox"></rect><text style="dominant-baseline: middle; text-anchor: middle; font-size: 12px;" transform="translate(79.33984375,12)" y="0" x="0" id="text-entity-dboESTUDIANTE-b57515c3-2980-57e2-a97a-1e8b05a4e00c" class="er entityLabel">dbo.ESTUDIANTE</text><rect height="22" width="67.828125" y="24" x="0" class="er attributeBoxOdd"></rect><text style="dominant-baseline: middle; font-size: 10.2px;" transform="translate(5,35)" y="0" x="0" id="text-entity-dboESTUDIANTE-b57515c3-2980-57e2-a97a-1e8b05a4e00c-attr-1-type" class="er entityLabel">int</text><rect height="22" width="67.2421875" y="24" x="67.828125" class="er attributeBoxOdd"></rect><text style="dominant-baseline: middle; font-size: 10.2px;" transform="translate(72.828125,35)" y="0" x="0" id="text-entity-dboESTUDIANTE-b57515c3-2980-57e2-a97a-1e8b05a4e00c-attr-1-name" class="er entityLabel">IDLECTOR</text><rect height="22" width="23.609375" y="24" x="135.0703125" class="er attributeBoxOdd"></rect><text style="dominant-baseline: middle; font-size: 10.2px;" transform="translate(140.0703125,35)" y="0" x="0" id="text-entity-dboESTUDIANTE-b57515c3-2980-57e2-a97a-1e8b05a4e00c-attr-1-comment" class="er entityLabel">PK</text><rect height="22" width="67.828125" y="46" x="0" class="er attributeBoxEven"></rect><text style="dominant-baseline: middle; font-size: 10.2px;" transform="translate(5,57)" y="0" x="0" id="text-entity-dboESTUDIANTE-b57515c3-2980-57e2-a97a-1e8b05a4e00c-attr-2-type" class="er entityLabel">varchar(255)</text><rect height="22" width="67.2421875" y="46" x="67.828125" class="er attributeBoxEven"></rect><text style="dominant-baseline: middle; font-size: 10.2px;" transform="translate(72.828125,57)" y="0" x="0" id="text-entity-dboESTUDIANTE-b57515c3-2980-57e2-a97a-1e8b05a4e00c-attr-2-name" class="er entityLabel">CI</text><rect height="22" width="23.609375" y="46" x="135.0703125" class="er attributeBoxEven"></rect><text style="dominant-baseline: middle; font-size: 10.2px;" transform="translate(140.0703125,57)" y="0" x="0" id="text-entity-dboESTUDIANTE-b57515c3-2980-57e2-a97a-1e8b05a4e00c-attr-2-comment" class="er entityLabel"></text><rect height="22" width="67.828125" y="68" x="0" class="er attributeBoxOdd"></rect><text style="dominant-baseline: middle; font-size: 10.2px;" transform="translate(5,79)" y="0" x="0" id="text-entity-dboESTUDIANTE-b57515c3-2980-57e2-a97a-1e8b05a4e00c-attr-3-type" class="er entityLabel">varchar(255)</text><rect height="22" width="67.2421875" y="68" x="67.828125" class="er attributeBoxOdd"></rect><text style="dominant-baseline: middle; font-size: 10.2px;" transform="translate(72.828125,79)" y="0" x="0" id="text-entity-dboESTUDIANTE-b57515c3-2980-57e2-a97a-1e8b05a4e00c-attr-3-name" class="er entityLabel">NOMBRE</text><rect height="22" width="23.609375" y="68" x="135.0703125" class="er attributeBoxOdd"></rect><text style="dominant-baseline: middle; font-size: 10.2px;" transform="translate(140.0703125,79)" y="0" x="0" id="text-entity-dboESTUDIANTE-b57515c3-2980-57e2-a97a-1e8b05a4e00c-attr-3-comment" class="er entityLabel"></text><rect height="22" width="67.828125" y="90" x="0" class="er attributeBoxEven"></rect><text style="dominant-baseline: middle; font-size: 10.2px;" transform="translate(5,101)" y="0" x="0" id="text-entity-dboESTUDIANTE-b57515c3-2980-57e2-a97a-1e8b05a4e00c-attr-4-type" class="er entityLabel">varchar(255)</text><rect height="22" width="67.2421875" y="90" x="67.828125" class="er attributeBoxEven"></rect><text style="dominant-baseline: middle; font-size: 10.2px;" transform="translate(72.828125,101)" y="0" x="0" id="text-entity-dboESTUDIANTE-b57515c3-2980-57e2-a97a-1e8b05a4e00c-attr-4-name" class="er entityLabel">DIRECCION</text><rect height="22" width="23.609375" y="90" x="135.0703125" class="er attributeBoxEven"></rect><text style="dominant-baseline: middle; font-size: 10.2px;" transform="translate(140.0703125,101)" y="0" x="0" id="text-entity-dboESTUDIANTE-b57515c3-2980-57e2-a97a-1e8b05a4e00c-attr-4-comment" class="er entityLabel"></text><rect height="22" width="67.828125" y="112" x="0" class="er attributeBoxOdd"></rect><text style="dominant-baseline: middle; font-size: 10.2px;" transform="translate(5,123)" y="0" x="0" id="text-entity-dboESTUDIANTE-b57515c3-2980-57e2-a97a-1e8b05a4e00c-attr-5-type" class="er entityLabel">varchar(255)</text><rect height="22" width="67.2421875" y="112" x="67.828125" class="er attributeBoxOdd"></rect><text style="dominant-baseline: middle; font-size: 10.2px;" transform="translate(72.828125,123)" y="0" x="0" id="text-entity-dboESTUDIANTE-b57515c3-2980-57e2-a97a-1e8b05a4e00c-attr-5-name" class="er entityLabel">CARRERA</text><rect height="22" width="23.609375" y="112" x="135.0703125" class="er attributeBoxOdd"></rect><text style="dominant-baseline: middle; font-size: 10.2px;" transform="translate(140.0703125,123)" y="0" x="0" id="text-entity-dboESTUDIANTE-b57515c3-2980-57e2-a97a-1e8b05a4e00c-attr-5-comment" class="er entityLabel"></text><rect height="22" width="67.828125" y="134" x="0" class="er attributeBoxEven"></rect><text style="dominant-baseline: middle; font-size: 10.2px;" transform="translate(5,145)" y="0" x="0" id="text-entity-dboESTUDIANTE-b57515c3-2980-57e2-a97a-1e8b05a4e00c-attr-6-type" class="er entityLabel">int</text><rect height="22" width="67.2421875" y="134" x="67.828125" class="er attributeBoxEven"></rect><text style="dominant-baseline: middle; font-size: 10.2px;" transform="translate(72.828125,145)" y="0" x="0" id="text-entity-dboESTUDIANTE-b57515c3-2980-57e2-a97a-1e8b05a4e00c-attr-6-name" class="er entityLabel">EDAD</text><rect height="22" width="23.609375" y="134" x="135.0703125" class="er attributeBoxEven"></rect><text style="dominant-baseline: middle; font-size: 10.2px;" transform="translate(140.0703125,145)" y="0" x="0" id="text-entity-dboESTUDIANTE-b57515c3-2980-57e2-a97a-1e8b05a4e00c-attr-6-comment" class="er entityLabel"></text></g><g transform="translate(505.421875,20 )" id="entity-dboPRESTAMO-d4287890-7df6-5fcd-80a0-3175be7f1144"><rect height="112" width="153.9609375" y="0" x="0" class="er entityBox"></rect><text style="dominant-baseline: middle; text-anchor: middle; font-size: 12px;" transform="translate(76.98046875,12)" y="0" x="0" id="text-entity-dboPRESTAMO-d4287890-7df6-5fcd-80a0-3175be7f1144" class="er entityLabel">dbo.PRESTAMO</text><rect height="22" width="29.859375" y="24" x="0" class="er attributeBoxOdd"></rect><text style="dominant-baseline: middle; font-size: 10.2px;" transform="translate(5,35)" y="0" x="0" id="text-entity-dboPRESTAMO-d4287890-7df6-5fcd-80a0-3175be7f1144-attr-1-type" class="er entityLabel">int</text><rect height="22" width="101.0625" y="24" x="29.859375" class="er attributeBoxOdd"></rect><text style="dominant-baseline: middle; font-size: 10.2px;" transform="translate(34.859375,35)" y="0" x="0" id="text-entity-dboPRESTAMO-d4287890-7df6-5fcd-80a0-3175be7f1144-attr-1-name" class="er entityLabel">IDLECTOR</text><rect height="22" width="23.0390625" y="24" x="130.921875" class="er attributeBoxOdd"></rect><text style="dominant-baseline: middle; font-size: 10.2px;" transform="translate(135.921875,35)" y="0" x="0" id="text-entity-dboPRESTAMO-d4287890-7df6-5fcd-80a0-3175be7f1144-attr-1-comment" class="er entityLabel">FK</text><rect height="22" width="29.859375" y="46" x="0" class="er attributeBoxEven"></rect><text style="dominant-baseline: middle; font-size: 10.2px;" transform="translate(5,57)" y="0" x="0" id="text-entity-dboPRESTAMO-d4287890-7df6-5fcd-80a0-3175be7f1144-attr-2-type" class="er entityLabel">int</text><rect height="22" width="101.0625" y="46" x="29.859375" class="er attributeBoxEven"></rect><text style="dominant-baseline: middle; font-size: 10.2px;" transform="translate(34.859375,57)" y="0" x="0" id="text-entity-dboPRESTAMO-d4287890-7df6-5fcd-80a0-3175be7f1144-attr-2-name" class="er entityLabel">IDLIBRO</text><rect height="22" width="23.0390625" y="46" x="130.921875" class="er attributeBoxEven"></rect><text style="dominant-baseline: middle; font-size: 10.2px;" transform="translate(135.921875,57)" y="0" x="0" id="text-entity-dboPRESTAMO-d4287890-7df6-5fcd-80a0-3175be7f1144-attr-2-comment" class="er entityLabel">FK</text><rect height="22" width="29.859375" y="68" x="0" class="er attributeBoxOdd"></rect><text style="dominant-baseline: middle; font-size: 10.2px;" transform="translate(5,79)" y="0" x="0" id="text-entity-dboPRESTAMO-d4287890-7df6-5fcd-80a0-3175be7f1144-attr-3-type" class="er entityLabel">date</text><rect height="22" width="101.0625" y="68" x="29.859375" class="er attributeBoxOdd"></rect><text style="dominant-baseline: middle; font-size: 10.2px;" transform="translate(34.859375,79)" y="0" x="0" id="text-entity-dboPRESTAMO-d4287890-7df6-5fcd-80a0-3175be7f1144-attr-3-name" class="er entityLabel">FECHAPRESTAMO</text><rect height="22" width="23.0390625" y="68" x="130.921875" class="er attributeBoxOdd"></rect><text style="dominant-baseline: middle; font-size: 10.2px;" transform="translate(135.921875,79)" y="0" x="0" id="text-entity-dboPRESTAMO-d4287890-7df6-5fcd-80a0-3175be7f1144-attr-3-comment" class="er entityLabel"></text><rect height="22" width="29.859375" y="90" x="0" class="er attributeBoxEven"></rect><text style="dominant-baseline: middle; font-size: 10.2px;" transform="translate(5,101)" y="0" x="0" id="text-entity-dboPRESTAMO-d4287890-7df6-5fcd-80a0-3175be7f1144-attr-4-type" class="er entityLabel">bit</text><rect height="22" width="101.0625" y="90" x="29.859375" class="er attributeBoxEven"></rect><text style="dominant-baseline: middle; font-size: 10.2px;" transform="translate(34.859375,101)" y="0" x="0" id="text-entity-dboPRESTAMO-d4287890-7df6-5fcd-80a0-3175be7f1144-attr-4-name" class="er entityLabel">DEVUELTO</text><rect height="22" width="23.0390625" y="90" x="130.921875" class="er attributeBoxEven"></rect><text style="dominant-baseline: middle; font-size: 10.2px;" transform="translate(135.921875,101)" y="0" x="0" id="text-entity-dboPRESTAMO-d4287890-7df6-5fcd-80a0-3175be7f1144-attr-4-comment" class="er entityLabel"></text></g><rect height="14" width="53.7890625" y="177.946533203125" x="87.50237274169922" class="er relationshipLabelBox"></rect><text style="text-anchor: middle; dominant-baseline: middle; font-size: 12px;" y="184.946533203125" x="114.39690399169922" id="rel1" class="er relationshipLabel">IDAUTOR</text><rect height="14" width="48.015625" y="167.89453125" x="253.97332763671875" class="er relationshipLabelBox"></rect><text style="text-anchor: middle; dominant-baseline: middle; font-size: 12px;" y="174.89453125" x="277.98114013671875" id="rel2" class="er relationshipLabel">IDLIBRO</text><rect height="14" width="60.46875" y="173.27651977539062" x="597.81689453125" class="er relationshipLabelBox"></rect><text style="text-anchor: middle; dominant-baseline: middle; font-size: 12px;" y="180.27651977539062" x="628.05126953125" id="rel3" class="er relationshipLabel">IDLECTOR</text><rect height="14" width="48.015625" y="180.16847229003906" x="431.41302490234375" class="er relationshipLabelBox"></rect><text style="text-anchor: middle; dominant-baseline: middle; font-size: 12px;" y="187.16847229003906" x="455.42083740234375" id="rel4" class="er relationshipLabel">IDLIBRO</text></svg>